<?xml version="1.0" standalone="no"?>
<!DOCTYPE svg PUBLIC "-//W3C//DTD SVG 20010904//EN"
 "http://www.w3.org/TR/2001/REC-SVG-20010904/DTD/svg10.dtd">
<svg version="1.0" xmlns="http://www.w3.org/2000/svg"
 width="1024.000000pt" height="1024.000000pt" viewBox="0 0 1024.000000 1024.000000"
 preserveAspectRatio="xMidYMid meet">
<metadata>
Created by potrace 1.11, written by Peter Selinger 2001-2013
</metadata>
<g transform="translate(0.000000,1024.000000) scale(0.100000,-0.100000)"
fill="#000000" stroke="none">
<path d="M5007 8944 c-1 -1 -34 -5 -72 -8 -39 -4 -82 -9 -95 -11 -14 -3 -44
-8 -67 -11 -33 -4 -122 -25 -284 -68 -175 -46 -231 -99 -207 -192 11 -42 41
-67 128 -104 375 -160 719 -384 932 -607 87 -90 83 -92 -50 -26 -594 295
-1101 303 -1492 21 -187 -134 -332 -316 -467 -587 -79 -158 -87 -193 -53 -248
37 -62 122 -72 191 -22 97 69 388 176 559 205 14 3 31 7 38 9 26 9 179 20 287
19 201 0 337 -21 510 -79 118 -39 238 -90 242 -102 2 -4 -25 -23 -60 -40 -218
-114 -488 -395 -733 -763 -56 -84 -190 -305 -232 -381 -15 -28 -40 -74 -55
-102 -191 -349 -429 -878 -631 -1402 -43 -110 -89 -228 -102 -262 -13 -34 -24
-68 -24 -75 0 -8 -4 -18 -9 -23 -4 -6 -30 -73 -56 -150 -26 -77 -51 -147 -56
-155 -6 -12 -29 -15 -106 -16 -187 -2 -324 -24 -490 -80 -355 -119 -695 -452
-846 -828 -38 -97 -38 -128 2 -176 20 -25 36 -33 72 -37 67 -8 105 15 132 80
145 357 408 614 742 725 50 16 108 33 130 36 52 8 93 15 130 21 34 6 247 6
285 1 14 -2 50 -7 80 -10 30 -3 62 -8 70 -11 8 -2 31 -6 50 -9 222 -35 620
-190 937 -367 207 -115 493 -306 743 -494 68 -51 311 -245 320 -254 3 -4 46
-40 95 -81 50 -41 92 -77 95 -80 3 -3 39 -35 80 -70 41 -36 77 -67 80 -70 3
-3 61 -57 130 -120 159 -146 335 -316 514 -498 77 -79 153 -150 168 -158 60
-31 134 -9 162 50 19 39 20 64 6 101 -14 36 -357 377 -704 700 -11 11 -112
102 -181 164 -534 480 -1140 906 -1632 1148 -84 41 -151 78 -149 82 3 4 38
101 79 216 97 273 253 686 302 800 7 17 27 66 45 110 17 44 40 100 51 124 11
24 29 64 39 90 10 25 29 71 43 101 13 30 48 109 78 175 141 318 352 712 501
935 223 332 429 510 591 510 71 0 113 -23 188 -103 231 -249 391 -535 459
-822 30 -125 35 -178 34 -360 0 -135 -5 -193 -23 -280 -32 -158 -91 -329 -171
-493 -84 -171 -89 -205 -36 -258 53 -53 95 -49 236 27 560 301 916 700 975
1094 40 276 -76 588 -319 853 -41 44 -35 45 44 3 141 -75 298 -203 435 -355
106 -117 226 -328 290 -511 29 -82 46 -109 78 -127 50 -26 114 -15 149 27 19
21 57 136 84 250 20 86 21 96 41 255 22 183 -6 476 -59 615 -89 236 -204 389
-388 520 -131 92 -362 190 -535 226 -33 7 -62 13 -65 14 -3 0 -27 4 -53 9 -27
4 -56 9 -65 11 -31 6 -167 20 -232 24 -39 3 143 66 272 95 155 35 218 41 403
41 179 0 259 -7 402 -35 166 -32 227 -48 388 -101 146 -47 191 -43 228 21 38
64 7 152 -118 340 -154 230 -341 400 -570 517 -71 36 -210 89 -217 82 -2 -1
-12 3 -23 9 -12 5 -41 13 -65 17 -25 4 -47 8 -50 10 -3 1 -39 6 -80 11 -297
30 -580 -23 -933 -173 -71 -30 -129 -53 -131 -52 -1 2 -8 22 -15 44 -31 96
-144 305 -220 406 -216 287 -493 448 -851 495 -48 6 -268 12 -273 8z m258
-259 c116 -18 263 -67 355 -118 150 -82 311 -244 402 -402 60 -103 148 -320
148 -363 0 -29 34 -83 61 -97 47 -25 93 -18 172 24 39 22 110 56 157 76 47 20
99 42 115 50 55 24 219 73 300 89 373 75 692 10 970 -200 72 -53 240 -223 231
-232 -3 -2 -37 4 -77 13 -201 45 -332 60 -549 60 -187 0 -285 -7 -400 -30 -14
-3 -38 -8 -55 -11 -46 -8 -175 -45 -240 -70 -11 -4 -26 -8 -34 -10 -7 -1 -68
-30 -135 -62 -165 -82 -334 -203 -365 -261 -16 -28 -14 -77 4 -111 28 -54 54
-60 267 -60 247 0 330 -6 493 -36 301 -54 505 -151 671 -318 94 -94 154 -191
199 -321 53 -150 64 -245 56 -489 l-1 -49 -79 119 c-90 135 -117 168 -216 269
-255 259 -605 448 -975 525 -206 42 -265 24 -278 -86 -6 -58 9 -78 110 -155
255 -192 430 -384 522 -574 67 -137 77 -176 82 -320 4 -110 -16 -208 -62 -313
-78 -178 -252 -376 -461 -526 l-52 -37 20 58 c26 74 64 222 78 299 34 188 34
467 1 619 -5 22 -11 51 -13 65 -27 150 -116 370 -221 545 -153 258 -321 445
-635 707 -26 22 -231 163 -396 273 -210 140 -434 237 -668 290 -140 31 -229
40 -407 40 -139 0 -196 -4 -310 -20 -78 -11 -196 -38 -282 -65 -51 -16 -94
-27 -96 -25 -7 7 92 127 149 181 56 52 163 134 175 134 4 0 15 6 23 13 29 25
145 68 242 91 80 19 120 23 230 21 185 -4 339 -37 534 -115 194 -77 486 -246
604 -349 53 -46 147 -34 182 23 39 61 10 198 -79 368 -115 221 -337 442 -657
655 -105 70 -301 183 -318 183 -7 0 -6 4 2 9 13 9 121 26 211 34 51 5 249 0
295 -8z m142 -1746 c60 -26 252 -154 242 -162 -2 -2 -35 -21 -74 -41 -189
-102 -394 -316 -602 -628 -81 -122 -118 -180 -148 -233 -7 -11 -40 -69 -74
-130 -58 -101 -265 -512 -318 -630 -159 -355 -287 -666 -419 -1023 -59 -158
-112 -300 -119 -317 -7 -16 -22 -60 -34 -97 l-22 -66 -32 10 c-89 29 -299 87
-353 98 l-62 12 28 82 c59 168 204 563 229 621 5 11 48 119 96 240 49 121 96
238 106 260 9 22 39 90 64 150 26 61 61 139 78 175 16 36 42 92 57 125 202
444 466 899 675 1160 260 325 509 468 682 394z"/>
</g>
</svg>
